<?xml version="1.0" encoding="UTF-8" standalone="no"?>
<svg
   xmlns:dc="http://purl.org/dc/elements/1.1/"
   xmlns:cc="http://creativecommons.org/ns#"
   xmlns:rdf="http://www.w3.org/1999/02/22-rdf-syntax-ns#"
   xmlns:svg="http://www.w3.org/2000/svg"
   xmlns="http://www.w3.org/2000/svg"
   xmlns:sodipodi="http://sodipodi.sourceforge.net/DTD/sodipodi-0.dtd"
   xmlns:inkscape="http://www.inkscape.org/namespaces/inkscape"
   version="1.1"
   width="334.3266641235351"
   height="105.1312"
   xml:space="preserve"
   id="svg66"
   sodipodi:docname="grow3.svg"
   inkscape:version="1.0.1 (3bc2e813f5, 2020-09-07)"><metadata
   id="metadata70"><rdf:RDF><cc:Work
       rdf:about=""><dc:format>image/svg+xml</dc:format><dc:type
         rdf:resource="http://purl.org/dc/dcmitype/StillImage" /></cc:Work></rdf:RDF></metadata><sodipodi:namedview
   pagecolor="#ffffff"
   bordercolor="#666666"
   borderopacity="1"
   objecttolerance="10"
   gridtolerance="10"
   guidetolerance="10"
   inkscape:pageopacity="0"
   inkscape:pageshadow="2"
   inkscape:window-width="1920"
   inkscape:window-height="984"
   id="namedview68"
   showgrid="false"
   inkscape:zoom="1.8101934"
   inkscape:cx="-3.9035659"
   inkscape:cy="51.206562"
   inkscape:window-x="0"
   inkscape:window-y="32"
   inkscape:window-maximized="1"
   inkscape:current-layer="svg66"
   inkscape:document-rotation="0" />
<desc
   id="desc2">Created with Fabric.js 1.6.0-rc.1</desc>
<defs
   id="defs4"><rect
   x="-90.432861"
   y="127.49832"
   width="204.83691"
   height="66.044692"
   id="rect959" /><rect
   x="-132.51138"
   y="119.89054"
   width="157.57241"
   height="64.54817"
   id="rect130" /><rect
   x="186.02539"
   y="37.728675"
   width="144.14122"
   height="44.081576"
   id="rect88" />
   
 <rect
   x="186.02539"
   y="37.728676"
   width="144.14122"
   height="44.081577"
   id="rect88-4" /><rect
   x="186.02539"
   y="37.728676"
   width="144.14122"
   height="44.081577"
   id="rect1124" /><rect
   x="-132.51138"
   y="119.89054"
   width="157.5724"
   height="64.548172"
   id="rect130-3" /><rect
   x="-132.51138"
   y="119.89054"
   width="157.5724"
   height="64.548172"
   id="rect1127" /><rect
   x="-90.432861"
   y="127.49832"
   width="204.83691"
   height="66.044693"
   id="rect959-8" /><rect
   x="-90.432861"
   y="127.49832"
   width="204.83691"
   height="66.044693"
   id="rect1130" /><rect
   x="186.02539"
   y="37.728676"
   width="144.14122"
   height="44.081577"
   id="rect88-4-4" /><rect
   x="186.02539"
   y="37.728676"
   width="144.14122"
   height="44.081577"
   id="rect1287" /><rect
   x="-132.51138"
   y="119.89054"
   width="157.5724"
   height="64.548172"
   id="rect130-3-2" /><rect
   x="-132.51138"
   y="119.89054"
   width="157.5724"
   height="64.548172"
   id="rect1290" /><rect
   x="-90.432861"
   y="127.49832"
   width="204.83691"
   height="66.044693"
   id="rect959-8-2" /><rect
   x="-90.432861"
   y="127.49832"
   width="204.83691"
   height="66.044693"
   id="rect1293" /></defs>
  
  

<g
   id="g870"
   transform="matrix(0.82715904,0,0,0.82715904,-8.3046252,14.189607)"><g
     id="g1446"
     transform="translate(272.69465,235.38353)"><path
       d="m -176.99972,-230.71837 h -14.368 l -2.47424,12.16 h -65.4304 l 7.05088,41.6 h 10.58176 v 6.17152 c -4.25728,0.88896 -7.46624,4.67008 -7.46624,9.1872 0,5.17568 4.21056,9.38688 9.38624,9.38688 5.17568,0 9.38624,-4.2112 9.38624,-9.38688 0,-4.51776 -3.20896,-8.29888 -7.46624,-9.1872 v -6.17152 h 25.6 v 6.17152 c -4.25728,0.88896 -7.46624,4.67008 -7.46624,9.1872 0,5.17568 4.21056,9.38688 9.38624,9.38688 5.17568,0 9.38624,-4.2112 9.38624,-9.38688 0,-4.51776 -3.20896,-8.29888 -7.46624,-9.1872 v -6.17152 h 9.88864 l 6.17216,-30.34496 c 0.0838,-0.15808 0.15168,-0.32704 0.18944,-0.51072 l 3.87968,-19.06432 h 11.23072 c 1.06048,0 1.92,-0.85952 1.92,-1.92 0,-1.06048 -0.86016,-1.92 -1.92064,-1.92 z m -77.72736,16 h 13.08736 v 8.96 h -11.56864 z m 2.16896,12.8 h 10.9184 v 8.32 h -9.50784 z m 3.58016,21.12 -1.51872,-8.96 h 8.85696 v 8.96 z m 14.80448,19.19872 c 0,3.05856 -2.48832,5.54688 -5.54624,5.54688 -3.05792,0 -5.54624,-2.48832 -5.54624,-5.54688 0,-3.05792 2.48832,-5.54624 5.54624,-5.54624 3.05792,0 5.54624,2.48832 5.54624,5.54624 z m 11.09376,-53.11872 h 10.88 v 8.96 h -10.88 z m 0,12.8 h 10.88 v 8.32 h -10.88 z m -3.84,21.12 h -10.88 v -8.96 h 10.88 z m 0,-12.8 h -10.88 v -8.32 h 10.88 z m 0,-12.16 h -10.88 v -8.96 h 10.88 z m 3.84,24.96 v -8.96 h 10.88 v 8.96 z m 18.34624,19.19872 c 0,3.05856 -2.48832,5.54688 -5.54624,5.54688 -3.05792,0 -5.54624,-2.48832 -5.54624,-5.54688 0,-3.05792 2.48832,-5.54624 5.54624,-5.54624 3.05792,0 5.54624,2.48832 5.54624,5.54624 z m 3.12512,-19.19872 h -6.75136 v -8.96 h 8.57344 z m 2.60288,-12.8 h -9.35424 v -8.32 h 11.04704 z m 2.47296,-12.16 h -11.8272 v -8.96 h 13.64992 z"
       style="fill:#000000;fill-rule:nonzero;stroke:none;stroke-width:0.64;stroke-linecap:butt;stroke-linejoin:miter;stroke-miterlimit:10;stroke-dasharray:none"
       stroke-linecap="round"
       id="path120" /><circle
       style="mix-blend-mode:multiply;fill:#1be300;fill-opacity:1"
       id="path1439"
       cx="-239.80608"
       cy="-161.49361"
       r="3.2480934"
       inkscape:transform-center-x="-0.30835477"
       inkscape:transform-center-y="-0.63555762" /><circle
       style="mix-blend-mode:multiply;fill:#1be300;fill-opacity:1"
       id="circle1441"
       cx="-210.34822"
       cy="-161.47865"
       r="3.2480934" /></g><text
     xml:space="preserve"
     style="font-style:normal;font-variant:normal;font-weight:normal;font-stretch:normal;font-size:44.0593px;line-height:1.25;font-family:Ubuntu;-inkscape-font-specification:'Ubuntu, Normal';font-variant-ligatures:normal;font-variant-caps:normal;font-variant-numeric:normal;font-variant-east-asian:normal;fill:#000000;fill-opacity:1;stroke:none;stroke-width:1.10148"
     x="81.192886"
     y="61.953819"
     id="text1474"><tspan
       sodipodi:role="line"
       id="tspan1472"
       x="81.192886"
       y="61.953819"
       style="font-style:normal;font-variant:normal;font-weight:normal;font-stretch:normal;font-size:60.0593px;font-family:Ubuntu;-inkscape-font-specification:'Ubuntu, Normal';font-variant-ligatures:normal;font-variant-caps:normal;font-variant-numeric:normal;font-variant-east-asian:normal;fill:#24ca00;fill-opacity:1;stroke-width:1.10148">Grow</tspan></text><text
     xml:space="preserve"
     style="font-style:normal;font-variant:normal;font-weight:bold;font-stretch:normal;font-size:44.5224px;line-height:1.25;font-family:Garuda;-inkscape-font-specification:'Garuda, Bold';font-variant-ligatures:normal;font-variant-caps:normal;font-variant-numeric:normal;font-variant-east-asian:normal;fill:#000000;fill-opacity:1;stroke:none;stroke-width:1.11306"
     x="222.64899"
     y="64.285858"
     id="text1478"
     transform="scale(1.0015013,0.99850096)"><tspan
       sodipodi:role="line"
       id="tspan1476"
       x="222.64899"
       y="64.285858"
       style="font-style:normal;font-variant:normal;font-weight:bold;font-stretch:normal;font-size:60.5224px;font-family:Garuda;-inkscape-font-specification:'Garuda, Bold';font-variant-ligatures:normal;font-variant-caps:normal;font-variant-numeric:normal;font-variant-east-asian:normal;stroke-width:1.11306">Basket</tspan></text></g></svg>
